# xmcd
#
# Track frame offsets: 
#        150
#        18412
#        29522
#        41112
#        52642
#        63515
#        76732
#        89850
#        103920
#        113740
#        124690
#        135815
#        146840
#        158040
#        169357
#        180245
#        191695
#        204342
#        212535
#        223187
#        234887
#        245405
#        254797
#        266457
#        279015
#
# Disc length: 3875 seconds
#
# Revision: 0
# Processed by: cddbd v1.4PL0 Copyright (c) Steve Scherf et al.
# Submitted via: ExactAudioCopy v0.90b4
#
DISCID=600f2119
DTITLE=Brook Benton - Rainy Night In Georgia
DYEAR=2001
DGENRE=Blues
TTITLE0=Rainy Night In Georgia
TTITLE1=It's Just A Matter Of Time
TTITLE2=Kiddio
TTITLE3=My True Confession
TTITLE4=Frankie And Johnny
TTITLE5=I Got What I Wanted
TTITLE6=A Lover's Question
TTITLE7=For My Baby
TTITLE8=Lie To Me
TTITLE9=Revenge
TTITLE10=So Many Ways
TTITLE11=The Ties That Bind
TTITLE12=Devoted
TTITLE13=Crazy In Love With You
TTITLE14=It's Just A House Without You
TTITLE15=A Door Is Open
TTITLE16=Thing Twice
TTITLE17=I Wanna Do Everything For You
TTITLE18=Thank You Pretty Baby
TTITLE19=Hotel Happiness
TTITLE20=If Only I Had Known
TTITLE21=So Close
TTITLE22=Only Your Love
TTITLE23=The Boll Weevil Song
TTITLE24=Next Stop Paradise
EXTD=
EXTT0=
EXTT1=
EXTT2=
EXTT3=
EXTT4=
EXTT5=
EXTT6=
EXTT7=
EXTT8=
EXTT9=
EXTT10=
EXTT11=
EXTT12=
EXTT13=
EXTT14=
EXTT15=
EXTT16=
EXTT17=
EXTT18=
EXTT19=
EXTT20=
EXTT21=
EXTT22=
EXTT23=
EXTT24=
PLAYORDER=
